<svg width="122" height="44" viewBox="0 0 122 44" fill="none" xmlns="http://www.w3.org/2000/svg">
<path d="M20.5677 25.4C19.501 27.0333 18.2093 28.475 16.6927 29.725L18.8677 32.125C19.251 32.525 19.4427 32.9417 19.4427 33.375C19.4427 33.7917 19.276 34.1333 18.9427 34.4C18.6093 34.6833 18.1677 34.825 17.6177 34.825C16.851 34.825 16.2677 34.5917 15.8677 34.125L13.7677 31.65C11.801 32.6333 9.91768 33.125 8.11768 33.125C6.78434 33.125 5.61768 32.9167 4.61768 32.5C3.61768 32.0833 2.84268 31.5083 2.29268 30.775C1.75934 30.0417 1.49268 29.225 1.49268 28.325C1.49268 27.1083 1.86768 25.975 2.61768 24.925C3.38434 23.8583 4.62601 22.8083 6.34268 21.775C5.37601 20.0083 4.89268 18.45 4.89268 17.1C4.89268 15.9 5.14268 14.8417 5.64268 13.925C6.14268 13.0083 6.83434 12.3 7.71768 11.8C8.61768 11.3 9.64268 11.05 10.7927 11.05C12.2593 11.05 13.3927 11.475 14.1927 12.325C15.0093 13.1583 15.4177 14.3083 15.4177 15.775C15.4177 16.9917 15.0593 18.1417 14.3427 19.225C13.6427 20.2917 12.3927 21.3833 10.5927 22.5C11.6593 23.95 13.0677 25.6583 14.8177 27.625C15.9177 26.6417 17.0093 25.4 18.0927 23.9C18.276 23.6333 18.4927 23.45 18.7427 23.35C18.9927 23.2333 19.301 23.175 19.6677 23.175C20.6343 23.175 21.1177 23.45 21.1177 24C21.1177 24.35 20.9343 24.8167 20.5677 25.4ZM10.6177 13.675C9.83434 13.675 9.21768 13.975 8.76768 14.575C8.31768 15.1583 8.09268 15.8917 8.09268 16.775C8.09268 17.825 8.44268 18.975 9.14268 20.225C10.4427 19.4583 11.326 18.7167 11.7927 18C12.2593 17.2833 12.4927 16.5 12.4927 15.65C12.4927 15.0333 12.3343 14.55 12.0177 14.2C11.701 13.85 11.2343 13.675 10.6177 13.675ZM8.26768 30.375C9.56768 30.375 10.8093 30.0917 11.9927 29.525C10.226 27.4083 8.83434 25.6 7.81768 24.1C5.93434 25.3333 4.99268 26.6167 4.99268 27.95C4.99268 28.7167 5.28434 29.3167 5.86768 29.75C6.45101 30.1667 7.25101 30.375 8.26768 30.375Z" fill="#363663"/>
<path d="M44.0491 33.125C43.0825 33.125 41.9908 33.0417 40.7741 32.875C40.1075 32.7917 39.6491 32.6167 39.3991 32.35C39.1491 32.0833 39.0408 31.65 39.0741 31.05C39.1908 29.4 39.4658 27.3667 39.8991 24.95C40.3325 22.5167 40.8575 20.175 41.4741 17.925C41.5908 17.5083 41.8241 17.2167 42.1741 17.05C42.5241 16.8833 42.9825 16.8 43.5491 16.8C44.5658 16.8 45.0741 17.0833 45.0741 17.65C45.0741 17.8833 45.0241 18.15 44.9241 18.45C44.4908 19.7833 44.0575 21.575 43.6241 23.825C43.1908 26.0583 42.8825 28.1917 42.6991 30.225C43.1991 30.275 43.7658 30.3 44.3991 30.3C47.3158 30.3 49.4908 29.4167 50.9241 27.65C52.3741 25.8833 53.0991 23.525 53.0991 20.575C53.0991 18.5917 52.5325 17.0583 51.3991 15.975C50.2658 14.8917 48.6658 14.35 46.5991 14.35C45.2658 14.35 43.9408 14.5583 42.6241 14.975C41.3241 15.3917 40.1491 15.9417 39.0991 16.625C38.8825 16.775 38.6491 16.85 38.3991 16.85C38.1158 16.85 37.8908 16.7333 37.7241 16.5C37.5575 16.25 37.4741 15.95 37.4741 15.6C37.4741 15.2 37.5408 14.875 37.6741 14.625C37.8075 14.3583 38.0325 14.1167 38.3491 13.9C39.4991 13.1167 40.8491 12.525 42.3991 12.125C43.9491 11.7083 45.4408 11.5 46.8741 11.5C48.9075 11.5 50.6658 11.8583 52.1491 12.575C53.6325 13.275 54.7741 14.3083 55.5741 15.675C56.3741 17.0417 56.7741 18.6917 56.7741 20.625C56.7741 23.1417 56.2741 25.3417 55.2741 27.225C54.2741 29.0917 52.8158 30.5417 50.8991 31.575C48.9825 32.6083 46.6991 33.125 44.0491 33.125ZM69.5976 27.425C69.8142 27.425 69.9809 27.525 70.0976 27.725C70.2309 27.925 70.2976 28.2 70.2976 28.55C70.2976 29.2167 70.1392 29.7333 69.8226 30.1C69.2059 30.85 68.3309 31.5417 67.1976 32.175C66.0809 32.8083 64.8809 33.125 63.5976 33.125C61.8476 33.125 60.4892 32.65 59.5226 31.7C58.5559 30.75 58.0726 29.45 58.0726 27.8C58.0726 26.65 58.3142 25.5833 58.7976 24.6C59.2809 23.6 59.9476 22.8083 60.7976 22.225C61.6642 21.6417 62.6392 21.35 63.7226 21.35C64.6892 21.35 65.4642 21.6417 66.0476 22.225C66.6309 22.7917 66.9226 23.5667 66.9226 24.55C66.9226 25.7 66.5059 26.6917 65.6726 27.525C64.8559 28.3417 63.4642 28.9917 61.4976 29.475C61.9142 30.2417 62.7059 30.625 63.8726 30.625C64.6226 30.625 65.4726 30.3667 66.4226 29.85C67.3892 29.3167 68.2226 28.625 68.9226 27.775C69.1226 27.5417 69.3476 27.425 69.5976 27.425ZM63.2976 23.8C62.6809 23.8 62.1559 24.1583 61.7226 24.875C61.3059 25.5917 61.0976 26.4583 61.0976 27.475V27.525C62.0809 27.2917 62.8559 26.9417 63.4226 26.475C63.9892 26.0083 64.2726 25.4667 64.2726 24.85C64.2726 24.5333 64.1809 24.2833 63.9976 24.1C63.8309 23.9 63.5976 23.8 63.2976 23.8ZM70.037 33.125C69.4037 33.125 68.9537 32.7917 68.687 32.125C68.437 31.4583 68.312 30.3917 68.312 28.925C68.312 26.7583 68.6203 24.7 69.237 22.75C69.387 22.2667 69.6287 21.9167 69.962 21.7C70.312 21.4667 70.7953 21.35 71.412 21.35C71.7453 21.35 71.9787 21.3917 72.112 21.475C72.2453 21.5583 72.312 21.7167 72.312 21.95C72.312 22.2167 72.187 22.8167 71.937 23.75C71.7703 24.4167 71.637 25 71.537 25.5C71.437 26 71.3537 26.6167 71.287 27.35C71.837 25.9167 72.4537 24.75 73.137 23.85C73.8203 22.95 74.487 22.3083 75.137 21.925C75.8037 21.5417 76.412 21.35 76.962 21.35C78.0453 21.35 78.587 21.8917 78.587 22.975C78.587 23.625 78.4037 24.8 78.037 26.5C77.7203 27.95 77.562 28.9083 77.562 29.375C77.562 30.0417 77.8037 30.375 78.287 30.375C78.6203 30.375 79.012 30.175 79.462 29.775C79.9287 29.3583 80.5453 28.6917 81.312 27.775C81.512 27.5417 81.737 27.425 81.987 27.425C82.2037 27.425 82.3703 27.525 82.487 27.725C82.6203 27.925 82.687 28.2 82.687 28.55C82.687 29.2167 82.5287 29.7333 82.212 30.1C81.4953 30.9833 80.7203 31.7083 79.887 32.275C79.0703 32.8417 78.137 33.125 77.087 33.125C76.237 33.125 75.5953 32.8833 75.162 32.4C74.7287 31.9 74.512 31.1833 74.512 30.25C74.512 29.7833 74.6287 28.95 74.862 27.75C75.0787 26.7 75.187 25.975 75.187 25.575C75.187 25.3083 75.0953 25.175 74.912 25.175C74.6953 25.175 74.387 25.4583 73.987 26.025C73.6037 26.575 73.2037 27.3083 72.787 28.225C72.387 29.1417 72.062 30.1083 71.812 31.125C71.6287 31.9083 71.412 32.4417 71.162 32.725C70.9287 32.9917 70.5537 33.125 70.037 33.125ZM90.1394 27.425C90.356 27.425 90.5227 27.525 90.6394 27.725C90.7727 27.925 90.8394 28.2 90.8394 28.55C90.8394 29.2167 90.681 29.7333 90.3644 30.1C89.6477 30.9833 88.8644 31.7083 88.0144 32.275C87.181 32.8417 86.231 33.125 85.1644 33.125C83.6977 33.125 82.606 32.4583 81.8894 31.125C81.1894 29.7917 80.8394 28.0667 80.8394 25.95C80.8394 23.9167 81.0977 21.6 81.6144 19C82.1477 16.4 82.9227 14.1667 83.9394 12.3C84.9727 10.4333 86.1977 9.5 87.6144 9.5C88.4144 9.5 89.0394 9.875 89.4894 10.625C89.956 11.3583 90.1894 12.4167 90.1894 13.8C90.1894 15.7833 89.6394 18.0833 88.5394 20.7C87.4394 23.3167 85.9477 25.9083 84.0644 28.475C84.181 29.1583 84.3727 29.65 84.6394 29.95C84.906 30.2333 85.256 30.375 85.6894 30.375C86.3727 30.375 86.9727 30.1833 87.4894 29.8C88.006 29.4 88.6644 28.725 89.4644 27.775C89.6644 27.5417 89.8894 27.425 90.1394 27.425ZM87.0644 11.975C86.681 11.975 86.2477 12.6667 85.7644 14.05C85.281 15.4333 84.856 17.15 84.4894 19.2C84.1227 21.25 83.9227 23.2167 83.8894 25.1C85.0727 23.15 86.0144 21.2 86.7144 19.25C87.4144 17.2833 87.7644 15.4917 87.7644 13.875C87.7644 12.6083 87.531 11.975 87.0644 11.975ZM101.569 25.325C101.785 25.325 101.952 25.4333 102.069 25.65C102.185 25.8667 102.244 26.1417 102.244 26.475C102.244 27.275 102.002 27.75 101.519 27.9C100.519 28.25 99.4187 28.45 98.2187 28.5C97.902 29.9 97.277 31.025 96.3437 31.875C95.4103 32.7083 94.352 33.125 93.1687 33.125C92.1687 33.125 91.3103 32.8833 90.5937 32.4C89.8937 31.9167 89.3603 31.275 88.9937 30.475C88.627 29.675 88.4437 28.8083 88.4437 27.875C88.4437 26.6083 88.6853 25.4833 89.1687 24.5C89.652 23.5 90.3187 22.725 91.1687 22.175C92.0187 21.6083 92.9603 21.325 93.9937 21.325C95.2603 21.325 96.277 21.7667 97.0437 22.65C97.827 23.5167 98.2853 24.5917 98.4187 25.875C99.202 25.825 100.135 25.6583 101.219 25.375C101.352 25.3417 101.469 25.325 101.569 25.325ZM93.3687 30.475C93.902 30.475 94.3603 30.2583 94.7437 29.825C95.1437 29.3917 95.4103 28.7667 95.5437 27.95C95.027 27.6 94.627 27.1417 94.3437 26.575C94.077 26.0083 93.9437 25.4083 93.9437 24.775C93.9437 24.5083 93.9687 24.2417 94.0187 23.975H93.8937C93.227 23.975 92.6687 24.3 92.2187 24.95C91.7853 25.5833 91.5687 26.4833 91.5687 27.65C91.5687 28.5667 91.7437 29.2667 92.0937 29.75C92.4603 30.2333 92.8853 30.475 93.3687 30.475ZM112.717 25.4C112.767 25.3833 112.85 25.375 112.967 25.375C113.217 25.375 113.409 25.4583 113.542 25.625C113.675 25.7917 113.742 26.0167 113.742 26.3C113.742 26.8167 113.642 27.225 113.442 27.525C113.242 27.8083 112.942 28.0167 112.542 28.15C111.775 28.4 110.959 28.525 110.092 28.525C109.359 28.525 108.667 28.425 108.017 28.225C107.534 29.0083 107 29.8167 106.417 30.65C105.75 31.6 105.175 32.25 104.692 32.6C104.209 32.95 103.659 33.125 103.042 33.125C102.359 33.125 101.817 32.8583 101.417 32.325C101.034 31.7917 100.792 30.95 100.692 29.8C100.492 27.4667 100.392 25.425 100.392 23.675V22.8C100.409 22.25 100.559 21.8667 100.842 21.65C101.125 21.4333 101.55 21.325 102.117 21.325C102.55 21.325 102.867 21.425 103.067 21.625C103.284 21.8083 103.392 22.125 103.392 22.575C103.392 24.4917 103.509 26.9833 103.742 30.05C104.742 28.5667 105.492 27.3833 105.992 26.5C105.742 26.0167 105.617 25.4417 105.617 24.775C105.617 24.2083 105.742 23.6583 105.992 23.125C106.242 22.5917 106.584 22.1583 107.017 21.825C107.45 21.4917 107.942 21.325 108.492 21.325C108.975 21.325 109.367 21.5 109.667 21.85C109.967 22.1833 110.117 22.675 110.117 23.325C110.117 24.075 109.917 24.9333 109.517 25.9C110.15 25.8667 110.992 25.7417 112.042 25.525L112.717 25.4ZM120.523 28.175C120.739 28.175 120.906 28.275 121.023 28.475C121.156 28.675 121.223 28.95 121.223 29.3C121.223 29.9 121.081 30.4167 120.798 30.85C120.331 31.5667 119.714 32.125 118.948 32.525C118.198 32.925 117.298 33.125 116.248 33.125C114.648 33.125 113.406 32.65 112.523 31.7C111.639 30.7333 111.198 29.4333 111.198 27.8C111.198 26.65 111.439 25.5833 111.923 24.6C112.406 23.6 113.073 22.8083 113.923 22.225C114.789 21.6417 115.764 21.35 116.848 21.35C117.814 21.35 118.589 21.6417 119.173 22.225C119.756 22.7917 120.048 23.5667 120.048 24.55C120.048 25.7 119.631 26.6917 118.798 27.525C117.981 28.3417 116.581 28.9917 114.598 29.475C114.998 30.2417 115.673 30.625 116.623 30.625C117.306 30.625 117.864 30.4667 118.298 30.15C118.748 29.8333 119.264 29.3 119.848 28.55C120.048 28.3 120.273 28.175 120.523 28.175ZM116.423 23.8C115.806 23.8 115.281 24.1583 114.848 24.875C114.431 25.5917 114.223 26.4583 114.223 27.475V27.525C115.206 27.2917 115.981 26.9417 116.548 26.475C117.114 26.0083 117.398 25.4667 117.398 24.85C117.398 24.5333 117.306 24.2833 117.123 24.1C116.956 23.9 116.723 23.8 116.423 23.8Z" fill="#363663"/>
</svg>
