<svg width="111" height="30" viewBox="0 0 111 30" fill="none" xmlns="http://www.w3.org/2000/svg">
<path d="M8.66426 26.125C8.28092 26.125 7.93926 25.9917 7.63926 25.725C7.35592 25.4417 7.21426 25.075 7.21426 24.625C7.21426 24.2583 7.33092 23.8583 7.56426 23.425L18.0393 3.75C18.2393 3.36667 18.4643 3.08333 18.7143 2.9C18.9809 2.71667 19.2476 2.625 19.5143 2.625C19.8976 2.625 20.2226 2.78333 20.4893 3.1C20.7726 3.4 20.9143 3.775 20.9143 4.225C20.9143 4.59167 20.8226 4.93333 20.6393 5.25L9.93926 25.325C9.78926 25.5917 9.59759 25.7917 9.36426 25.925C9.14759 26.0583 8.91426 26.125 8.66426 26.125ZM34.0252 26.125C33.0585 26.125 31.9669 26.0417 30.7502 25.875C30.0835 25.7917 29.6252 25.6167 29.3752 25.35C29.1252 25.0833 29.0169 24.65 29.0502 24.05C29.1669 22.4 29.4419 20.3667 29.8752 17.95C30.3085 15.5167 30.8335 13.175 31.4502 10.925C31.5669 10.5083 31.8002 10.2167 32.1502 10.05C32.5002 9.88333 32.9585 9.8 33.5252 9.8C34.5419 9.8 35.0502 10.0833 35.0502 10.65C35.0502 10.8833 35.0002 11.15 34.9002 11.45C34.4669 12.7833 34.0335 14.575 33.6002 16.825C33.1669 19.0583 32.8585 21.1917 32.6752 23.225C33.1752 23.275 33.7419 23.3 34.3752 23.3C37.2919 23.3 39.4669 22.4167 40.9002 20.65C42.3502 18.8833 43.0752 16.525 43.0752 13.575C43.0752 11.5917 42.5085 10.0583 41.3752 8.975C40.2419 7.89167 38.6419 7.35 36.5752 7.35C35.2419 7.35 33.9169 7.55833 32.6002 7.975C31.3002 8.39167 30.1252 8.94167 29.0752 9.625C28.8585 9.775 28.6252 9.85 28.3752 9.85C28.0919 9.85 27.8669 9.73333 27.7002 9.5C27.5335 9.25 27.4502 8.95 27.4502 8.6C27.4502 8.2 27.5169 7.875 27.6502 7.625C27.7835 7.35833 28.0085 7.11667 28.3252 6.9C29.4752 6.11667 30.8252 5.525 32.3752 5.125C33.9252 4.70833 35.4169 4.5 36.8502 4.5C38.8835 4.5 40.6419 4.85833 42.1252 5.575C43.6085 6.275 44.7502 7.30833 45.5502 8.675C46.3502 10.0417 46.7502 11.6917 46.7502 13.625C46.7502 16.1417 46.2502 18.3417 45.2502 20.225C44.2502 22.0917 42.7919 23.5417 40.8752 24.575C38.9585 25.6083 36.6752 26.125 34.0252 26.125ZM59.5736 20.425C59.7903 20.425 59.957 20.525 60.0736 20.725C60.207 20.925 60.2736 21.2 60.2736 21.55C60.2736 22.2167 60.1153 22.7333 59.7986 23.1C59.182 23.85 58.307 24.5417 57.1736 25.175C56.057 25.8083 54.857 26.125 53.5736 26.125C51.8236 26.125 50.4653 25.65 49.4986 24.7C48.532 23.75 48.0486 22.45 48.0486 20.8C48.0486 19.65 48.2903 18.5833 48.7736 17.6C49.257 16.6 49.9236 15.8083 50.7736 15.225C51.6403 14.6417 52.6153 14.35 53.6986 14.35C54.6653 14.35 55.4403 14.6417 56.0236 15.225C56.607 15.7917 56.8986 16.5667 56.8986 17.55C56.8986 18.7 56.482 19.6917 55.6486 20.525C54.832 21.3417 53.4403 21.9917 51.4736 22.475C51.8903 23.2417 52.682 23.625 53.8486 23.625C54.5986 23.625 55.4486 23.3667 56.3986 22.85C57.3653 22.3167 58.1986 21.625 58.8986 20.775C59.0986 20.5417 59.3236 20.425 59.5736 20.425ZM53.2736 16.8C52.657 16.8 52.132 17.1583 51.6986 17.875C51.282 18.5917 51.0736 19.4583 51.0736 20.475V20.525C52.057 20.2917 52.832 19.9417 53.3986 19.475C53.9653 19.0083 54.2486 18.4667 54.2486 17.85C54.2486 17.5333 54.157 17.2833 53.9736 17.1C53.807 16.9 53.5736 16.8 53.2736 16.8ZM60.0131 26.125C59.3798 26.125 58.9298 25.7917 58.6631 25.125C58.4131 24.4583 58.2881 23.3917 58.2881 21.925C58.2881 19.7583 58.5964 17.7 59.2131 15.75C59.3631 15.2667 59.6048 14.9167 59.9381 14.7C60.2881 14.4667 60.7714 14.35 61.3881 14.35C61.7214 14.35 61.9548 14.3917 62.0881 14.475C62.2214 14.5583 62.2881 14.7167 62.2881 14.95C62.2881 15.2167 62.1631 15.8167 61.9131 16.75C61.7464 17.4167 61.6131 18 61.5131 18.5C61.4131 19 61.3298 19.6167 61.2631 20.35C61.8131 18.9167 62.4298 17.75 63.1131 16.85C63.7964 15.95 64.4631 15.3083 65.1131 14.925C65.7798 14.5417 66.3881 14.35 66.9381 14.35C68.0214 14.35 68.5631 14.8917 68.5631 15.975C68.5631 16.625 68.3798 17.8 68.0131 19.5C67.6964 20.95 67.5381 21.9083 67.5381 22.375C67.5381 23.0417 67.7798 23.375 68.2631 23.375C68.5964 23.375 68.9881 23.175 69.4381 22.775C69.9048 22.3583 70.5214 21.6917 71.2881 20.775C71.4881 20.5417 71.7131 20.425 71.9631 20.425C72.1798 20.425 72.3464 20.525 72.4631 20.725C72.5964 20.925 72.6631 21.2 72.6631 21.55C72.6631 22.2167 72.5048 22.7333 72.1881 23.1C71.4714 23.9833 70.6964 24.7083 69.8631 25.275C69.0464 25.8417 68.1131 26.125 67.0631 26.125C66.2131 26.125 65.5714 25.8833 65.1381 25.4C64.7048 24.9 64.4881 24.1833 64.4881 23.25C64.4881 22.7833 64.6048 21.95 64.8381 20.75C65.0548 19.7 65.1631 18.975 65.1631 18.575C65.1631 18.3083 65.0714 18.175 64.8881 18.175C64.6714 18.175 64.3631 18.4583 63.9631 19.025C63.5798 19.575 63.1798 20.3083 62.7631 21.225C62.3631 22.1417 62.0381 23.1083 61.7881 24.125C61.6048 24.9083 61.3881 25.4417 61.1381 25.725C60.9048 25.9917 60.5298 26.125 60.0131 26.125ZM80.1154 20.425C80.3321 20.425 80.4988 20.525 80.6154 20.725C80.7488 20.925 80.8154 21.2 80.8154 21.55C80.8154 22.2167 80.6571 22.7333 80.3404 23.1C79.6238 23.9833 78.8404 24.7083 77.9904 25.275C77.1571 25.8417 76.2071 26.125 75.1404 26.125C73.6738 26.125 72.5821 25.4583 71.8654 24.125C71.1654 22.7917 70.8154 21.0667 70.8154 18.95C70.8154 16.9167 71.0738 14.6 71.5904 12C72.1238 9.4 72.8988 7.16667 73.9154 5.3C74.9488 3.43333 76.1738 2.5 77.5904 2.5C78.3904 2.5 79.0154 2.875 79.4654 3.625C79.9321 4.35833 80.1654 5.41667 80.1654 6.8C80.1654 8.78333 79.6154 11.0833 78.5154 13.7C77.4154 16.3167 75.9238 18.9083 74.0404 21.475C74.1571 22.1583 74.3488 22.65 74.6154 22.95C74.8821 23.2333 75.2321 23.375 75.6654 23.375C76.3488 23.375 76.9488 23.1833 77.4654 22.8C77.9821 22.4 78.6404 21.725 79.4404 20.775C79.6404 20.5417 79.8654 20.425 80.1154 20.425ZM77.0404 4.975C76.6571 4.975 76.2238 5.66667 75.7404 7.05C75.2571 8.43333 74.8321 10.15 74.4654 12.2C74.0988 14.25 73.8988 16.2167 73.8654 18.1C75.0488 16.15 75.9904 14.2 76.6904 12.25C77.3904 10.2833 77.7404 8.49167 77.7404 6.875C77.7404 5.60833 77.5071 4.975 77.0404 4.975ZM91.5447 18.325C91.7614 18.325 91.9281 18.4333 92.0447 18.65C92.1614 18.8667 92.2197 19.1417 92.2197 19.475C92.2197 20.275 91.9781 20.75 91.4947 20.9C90.4947 21.25 89.3947 21.45 88.1947 21.5C87.8781 22.9 87.2531 24.025 86.3197 24.875C85.3864 25.7083 84.3281 26.125 83.1447 26.125C82.1447 26.125 81.2864 25.8833 80.5697 25.4C79.8697 24.9167 79.3364 24.275 78.9697 23.475C78.6031 22.675 78.4197 21.8083 78.4197 20.875C78.4197 19.6083 78.6614 18.4833 79.1447 17.5C79.6281 16.5 80.2947 15.725 81.1447 15.175C81.9947 14.6083 82.9364 14.325 83.9697 14.325C85.2364 14.325 86.2531 14.7667 87.0197 15.65C87.8031 16.5167 88.2614 17.5917 88.3947 18.875C89.1781 18.825 90.1114 18.6583 91.1947 18.375C91.3281 18.3417 91.4447 18.325 91.5447 18.325ZM83.3447 23.475C83.8781 23.475 84.3364 23.2583 84.7197 22.825C85.1197 22.3917 85.3864 21.7667 85.5197 20.95C85.0031 20.6 84.6031 20.1417 84.3197 19.575C84.0531 19.0083 83.9197 18.4083 83.9197 17.775C83.9197 17.5083 83.9447 17.2417 83.9947 16.975H83.8697C83.2031 16.975 82.6447 17.3 82.1947 17.95C81.7614 18.5833 81.5447 19.4833 81.5447 20.65C81.5447 21.5667 81.7197 22.2667 82.0697 22.75C82.4364 23.2333 82.8614 23.475 83.3447 23.475ZM102.693 18.4C102.743 18.3833 102.826 18.375 102.943 18.375C103.193 18.375 103.385 18.4583 103.518 18.625C103.651 18.7917 103.718 19.0167 103.718 19.3C103.718 19.8167 103.618 20.225 103.418 20.525C103.218 20.8083 102.918 21.0167 102.518 21.15C101.751 21.4 100.935 21.525 100.068 21.525C99.3348 21.525 98.6432 21.425 97.9932 21.225C97.5098 22.0083 96.9765 22.8167 96.3932 23.65C95.7265 24.6 95.1515 25.25 94.6682 25.6C94.1848 25.95 93.6348 26.125 93.0182 26.125C92.3348 26.125 91.7932 25.8583 91.3932 25.325C91.0098 24.7917 90.7682 23.95 90.6682 22.8C90.4682 20.4667 90.3682 18.425 90.3682 16.675V15.8C90.3848 15.25 90.5348 14.8667 90.8182 14.65C91.1015 14.4333 91.5265 14.325 92.0932 14.325C92.5265 14.325 92.8432 14.425 93.0432 14.625C93.2598 14.8083 93.3682 15.125 93.3682 15.575C93.3682 17.4917 93.4848 19.9833 93.7182 23.05C94.7182 21.5667 95.4682 20.3833 95.9682 19.5C95.7182 19.0167 95.5932 18.4417 95.5932 17.775C95.5932 17.2083 95.7182 16.6583 95.9682 16.125C96.2182 15.5917 96.5598 15.1583 96.9932 14.825C97.4265 14.4917 97.9182 14.325 98.4682 14.325C98.9515 14.325 99.3432 14.5 99.6432 14.85C99.9432 15.1833 100.093 15.675 100.093 16.325C100.093 17.075 99.8932 17.9333 99.4932 18.9C100.126 18.8667 100.968 18.7417 102.018 18.525L102.693 18.4ZM110.499 21.175C110.715 21.175 110.882 21.275 110.999 21.475C111.132 21.675 111.199 21.95 111.199 22.3C111.199 22.9 111.057 23.4167 110.774 23.85C110.307 24.5667 109.69 25.125 108.924 25.525C108.174 25.925 107.274 26.125 106.224 26.125C104.624 26.125 103.382 25.65 102.499 24.7C101.615 23.7333 101.174 22.4333 101.174 20.8C101.174 19.65 101.415 18.5833 101.899 17.6C102.382 16.6 103.049 15.8083 103.899 15.225C104.765 14.6417 105.74 14.35 106.824 14.35C107.79 14.35 108.565 14.6417 109.149 15.225C109.732 15.7917 110.024 16.5667 110.024 17.55C110.024 18.7 109.607 19.6917 108.774 20.525C107.957 21.3417 106.557 21.9917 104.574 22.475C104.974 23.2417 105.649 23.625 106.599 23.625C107.282 23.625 107.84 23.4667 108.274 23.15C108.724 22.8333 109.24 22.3 109.824 21.55C110.024 21.3 110.249 21.175 110.499 21.175ZM106.399 16.8C105.782 16.8 105.257 17.1583 104.824 17.875C104.407 18.5917 104.199 19.4583 104.199 20.475V20.525C105.182 20.2917 105.957 19.9417 106.524 19.475C107.09 19.0083 107.374 18.4667 107.374 17.85C107.374 17.5333 107.282 17.2833 107.099 17.1C106.932 16.9 106.699 16.8 106.399 16.8Z" fill="#363663"/>
</svg>
