<svg width="31" height="30" viewBox="0 0 31 30" fill="none" xmlns="http://www.w3.org/2000/svg">
<path d="M5.5 15C5.5 15.3315 5.6317 15.6495 5.86612 15.8839C6.10054 16.1183 6.41848 16.25 6.75 16.25C7.08152 16.25 7.39946 16.1183 7.63388 15.8839C7.8683 15.6495 8 15.3315 8 15C8 14.6685 7.8683 14.3505 7.63388 14.1161C7.39946 13.8817 7.08152 13.75 6.75 13.75C6.41848 13.75 6.10054 13.8817 5.86612 14.1161C5.6317 14.3505 5.5 14.6685 5.5 15ZM14.25 15C14.25 15.3315 14.3817 15.6495 14.6161 15.8839C14.8505 16.1183 15.1685 16.25 15.5 16.25C15.8315 16.25 16.1495 16.1183 16.3839 15.8839C16.6183 15.6495 16.75 15.3315 16.75 15C16.75 14.6685 16.6183 14.3505 16.3839 14.1161C16.1495 13.8817 15.8315 13.75 15.5 13.75C15.1685 13.75 14.8505 13.8817 14.6161 14.1161C14.3817 14.3505 14.25 14.6685 14.25 15ZM23 15C23 15.3315 23.1317 15.6495 23.3661 15.8839C23.6005 16.1183 23.9185 16.25 24.25 16.25C24.5815 16.25 24.8995 16.1183 25.1339 15.8839C25.3683 15.6495 25.5 15.3315 25.5 15C25.5 14.6685 25.3683 14.3505 25.1339 14.1161C24.8995 13.8817 24.5815 13.75 24.25 13.75C23.9185 13.75 23.6005 13.8817 23.3661 14.1161C23.1317 14.3505 23 14.6685 23 15Z" stroke="#BFBFBF" stroke-width="2" stroke-linecap="round" stroke-linejoin="round"/>
</svg>
