<svg width="31" height="30" viewBox="0 0 31 30" fill="none" xmlns="http://www.w3.org/2000/svg">
<path d="M10.4 7.9125C10.1334 7.6641 9.78082 7.52887 9.4165 7.5353C9.05219 7.54173 8.70459 7.68931 8.44694 7.94696C8.18929 8.20461 8.04171 8.55221 8.03528 8.91652C8.02885 9.28084 8.16408 9.63342 8.41248 9.9L13.5125 15L8.41248 20.1C8.27432 20.2287 8.1635 20.384 8.08664 20.5565C8.00978 20.729 7.96846 20.9152 7.96512 21.104C7.96179 21.2928 7.99653 21.4804 8.06725 21.6555C8.13798 21.8306 8.24325 21.9897 8.37679 22.1232C8.51032 22.2567 8.66938 22.362 8.84449 22.4327C9.01959 22.5035 9.20714 22.5382 9.39596 22.5349C9.58478 22.5315 9.77099 22.4902 9.94349 22.4133C10.116 22.3365 10.2712 22.2257 10.4 22.0875L15.5 16.9875L20.6 22.0875C20.7287 22.2257 20.884 22.3365 21.0565 22.4133C21.229 22.4902 21.4152 22.5315 21.604 22.5349C21.7928 22.5382 21.9804 22.5035 22.1555 22.4327C22.3306 22.362 22.4896 22.2567 22.6232 22.1232C22.7567 21.9897 22.862 21.8306 22.9327 21.6555C23.0034 21.4804 23.0382 21.2928 23.0348 21.104C23.0315 20.9152 22.9902 20.729 22.9133 20.5565C22.8365 20.384 22.7256 20.2287 22.5875 20.1L17.4875 15L22.5875 9.9C22.8359 9.63342 22.9711 9.28084 22.9647 8.91652C22.9583 8.55221 22.8107 8.20461 22.553 7.94696C22.2954 7.68931 21.9478 7.54173 21.5835 7.5353C21.2191 7.52887 20.8666 7.6641 20.6 7.9125L15.5 13.0125L10.4 7.9125Z" fill="#CCCCCC"/>
</svg>
