<svg width="69" height="23" viewBox="0 0 69 23" fill="none" xmlns="http://www.w3.org/2000/svg">
<path d="M21.1134 1.25C21.63 1.35 22.0134 1.525 22.2634 1.775C22.53 2.025 22.6634 2.31667 22.6634 2.65C22.6634 3.2 22.505 3.6 22.1884 3.85C21.8884 4.1 21.405 4.2 20.7384 4.15C19.2384 4.03333 18.0634 3.95833 17.2134 3.925C16.38 3.875 15.28 3.84167 13.9134 3.825C13.2967 6.89167 12.73 9.975 12.2134 13.075C12.03 14.2083 11.8384 15.525 11.6384 17.025C11.4384 18.5083 11.305 19.7083 11.2384 20.625C11.205 21.1083 11.005 21.4833 10.6384 21.75C10.2717 22 9.83005 22.125 9.31338 22.125C8.76338 22.125 8.33838 21.9917 8.03838 21.725C7.73838 21.4583 7.58838 21.1083 7.58838 20.675C7.58838 20.275 7.64671 19.6167 7.76338 18.7C7.89671 17.7667 8.04671 16.7917 8.21338 15.775C8.39671 14.7583 8.53838 13.875 8.63838 13.125C8.82171 11.8583 9.03005 10.6 9.26338 9.35C9.49671 8.1 9.73005 6.91667 9.96338 5.8C10.0134 5.55 10.0717 5.26667 10.1384 4.95C10.205 4.61667 10.28 4.25 10.3634 3.85C8.73005 3.9 7.44671 4.03333 6.51338 4.25C5.58005 4.46667 4.91338 4.775 4.51338 5.175C4.13005 5.55833 3.93838 6.05833 3.93838 6.675C3.93838 7.24167 4.10505 7.78333 4.43838 8.3C4.50505 8.41667 4.53838 8.54167 4.53838 8.675C4.53838 8.99167 4.34671 9.29167 3.96338 9.575C3.59671 9.84167 3.21338 9.975 2.81338 9.975C2.53005 9.975 2.29671 9.89167 2.11338 9.725C1.78005 9.44167 1.50505 9.04167 1.28838 8.525C1.07171 7.99167 0.963379 7.39167 0.963379 6.725C0.963379 5.30833 1.42171 4.175 2.33838 3.325C3.27171 2.45833 4.68005 1.825 6.56338 1.425C8.46338 1.025 10.8967 0.824998 13.8634 0.824998C15.6967 0.824998 17.155 0.858332 18.2384 0.924999C19.3384 0.991665 20.2967 1.1 21.1134 1.25ZM20.6989 22.125C19.7156 22.125 18.8739 21.8833 18.1739 21.4C17.4906 20.9 16.9739 20.25 16.6239 19.45C16.2739 18.65 16.0989 17.7917 16.0989 16.875C16.0989 15.6083 16.3323 14.4833 16.7989 13.5C17.2823 12.5 17.9323 11.725 18.7489 11.175C19.5656 10.6083 20.4823 10.325 21.4989 10.325C22.4823 10.325 23.3239 10.575 24.0239 11.075C24.7239 11.5583 25.2489 12.2 25.5989 13C25.9489 13.8 26.1239 14.6583 26.1239 15.575C26.1239 16.8417 25.8823 17.975 25.3989 18.975C24.9156 19.9583 24.2573 20.7333 23.4239 21.3C22.6073 21.85 21.6989 22.125 20.6989 22.125ZM20.9739 19.425C21.5406 19.425 22.0156 19.1167 22.3989 18.5C22.7989 17.8833 22.9989 16.9833 22.9989 15.8C22.9989 14.8833 22.8323 14.1917 22.4989 13.725C22.1656 13.2583 21.7656 13.025 21.2989 13.025C20.6989 13.025 20.1989 13.3333 19.7989 13.95C19.4156 14.55 19.2239 15.45 19.2239 16.65C19.2239 17.6 19.3906 18.3 19.7239 18.75C20.0573 19.2 20.4739 19.425 20.9739 19.425ZM29.3521 15.85C28.9521 15.8833 28.6271 15.7667 28.3771 15.5C28.1437 15.2333 28.0271 14.8583 28.0271 14.375C28.0271 13.925 28.1354 13.5917 28.3521 13.375C28.5854 13.1583 28.9187 13.0333 29.3521 13L34.4771 12.5C34.8937 12.4667 35.2104 12.575 35.4271 12.825C35.6604 13.0583 35.7771 13.4083 35.7771 13.875C35.7771 14.775 35.3437 15.2667 34.4771 15.35L29.3521 15.85ZM44.3851 22.125C43.4184 22.125 42.3267 22.0417 41.1101 21.875C40.4434 21.7917 39.9851 21.6167 39.7351 21.35C39.4851 21.0833 39.3767 20.65 39.4101 20.05C39.5267 18.4 39.8017 16.3667 40.2351 13.95C40.6684 11.5167 41.1934 9.175 41.8101 6.925C41.9267 6.50833 42.1601 6.21667 42.5101 6.05C42.8601 5.88333 43.3184 5.8 43.8851 5.8C44.9017 5.8 45.4101 6.08333 45.4101 6.65C45.4101 6.88333 45.3601 7.15 45.2601 7.45C44.8267 8.78333 44.3934 10.575 43.9601 12.825C43.5267 15.0583 43.2184 17.1917 43.0351 19.225C43.5351 19.275 44.1017 19.3 44.7351 19.3C47.6517 19.3 49.8267 18.4167 51.2601 16.65C52.7101 14.8833 53.4351 12.525 53.4351 9.575C53.4351 7.59167 52.8684 6.05833 51.7351 4.975C50.6017 3.89167 49.0017 3.35 46.9351 3.35C45.6017 3.35 44.2767 3.55833 42.9601 3.975C41.6601 4.39167 40.4851 4.94167 39.4351 5.625C39.2184 5.775 38.9851 5.85 38.7351 5.85C38.4517 5.85 38.2267 5.73333 38.0601 5.5C37.8934 5.25 37.8101 4.95 37.8101 4.6C37.8101 4.2 37.8767 3.875 38.0101 3.625C38.1434 3.35833 38.3684 3.11667 38.6851 2.9C39.8351 2.11667 41.1851 1.525 42.7351 1.125C44.2851 0.708333 45.7767 0.5 47.2101 0.5C49.2434 0.5 51.0017 0.858333 52.4851 1.575C53.9684 2.275 55.1101 3.30833 55.9101 4.675C56.7101 6.04167 57.1101 7.69167 57.1101 9.625C57.1101 12.1417 56.6101 14.3417 55.6101 16.225C54.6101 18.0917 53.1517 19.5417 51.2351 20.575C49.3184 21.6083 47.0351 22.125 44.3851 22.125ZM63.0085 22.125C62.0252 22.125 61.1835 21.8833 60.4835 21.4C59.8002 20.9 59.2835 20.25 58.9335 19.45C58.5835 18.65 58.4085 17.7917 58.4085 16.875C58.4085 15.6083 58.6418 14.4833 59.1085 13.5C59.5918 12.5 60.2418 11.725 61.0585 11.175C61.8752 10.6083 62.7918 10.325 63.8085 10.325C64.7918 10.325 65.6335 10.575 66.3335 11.075C67.0335 11.5583 67.5585 12.2 67.9085 13C68.2585 13.8 68.4335 14.6583 68.4335 15.575C68.4335 16.8417 68.1918 17.975 67.7085 18.975C67.2252 19.9583 66.5668 20.7333 65.7335 21.3C64.9168 21.85 64.0085 22.125 63.0085 22.125ZM63.2835 19.425C63.8502 19.425 64.3252 19.1167 64.7085 18.5C65.1085 17.8833 65.3085 16.9833 65.3085 15.8C65.3085 14.8833 65.1418 14.1917 64.8085 13.725C64.4752 13.2583 64.0752 13.025 63.6085 13.025C63.0085 13.025 62.5085 13.3333 62.1085 13.95C61.7252 14.55 61.5335 15.45 61.5335 16.65C61.5335 17.6 61.7002 18.3 62.0335 18.75C62.3668 19.2 62.7835 19.425 63.2835 19.425Z" fill="#363663"/>
</svg>
